# MagicaVoxel @ Ephtracy

# group
o 

# material
mtllib stone_piece_1.mtl
usemtl palette

# normals
vn -1 0 0
vn 1 0 0
vn 0 0 1
vn 0 0 -1
vn 0 -1 0
vn 0 1 0

# texcoords
vt 0.845703 0.5
vt 0.857422 0.5

# verts
v -0.6 0 -0.4
v -0.6 0 -0.7
v -0.6 0.1 -0.4
v -0.6 0.1 -0.7
v -0.5 0 -0.1
v -0.5 0 -0.4
v -0.5 0 -0.7
v -0.5 0 -0.9
v -0.5 0.1 -0.1
v -0.5 0.1 -0.2
v -0.5 0.1 -0.4
v -0.5 0.1 -0.5
v -0.5 0.1 -0.7
v -0.5 0.1 -0.8
v -0.5 0.1 -0.9
v -0.5 0.2 -0.2
v -0.5 0.2 -0.4
v -0.5 0.2 -0.5
v -0.5 0.2 -0.8
v -0.4 0.1 -0.1
v -0.4 0.1 -0.2
v -0.4 0.1 -0.8
v -0.4 0.1 -0.9
v -0.4 0.2 -0.1
v -0.4 0.2 -0.2
v -0.4 0.2 -0.3
v -0.4 0.2 -0.4
v -0.4 0.2 -0.5
v -0.4 0.2 -0.6
v -0.4 0.2 -0.8
v -0.4 0.2 -0.9
v -0.4 0.3 -0.3
v -0.4 0.3 -0.6
v -0.4 0.3 -0.8
v -0.3 0.2 -0.2
v -0.3 0.2 -0.3
v -0.3 0.3 -0.2
v -0.3 0.3 -0.3
v -0.3 0.3 -0.6
v -0.3 0.3 -0.7
v -0.3 0.4 -0.3
v -0.3 0.4 -0.7
v 0.2 0 -0.1
v 0.2 0 -0.3
v 0.2 0 -0.8
v 0.2 0 -0.9
v 0.2 0.2 -0.1
v 0.2 0.2 -0.2
v 0.2 0.2 -0.8
v 0.2 0.2 -0.9
v 0.2 0.3 -0.2
v 0.2 0.3 -0.3
v 0.2 0.3 -0.4
v 0.2 0.3 -0.5
v 0.2 0.3 -0.6
v 0.2 0.3 -0.7
v 0.2 0.4 -0.3
v 0.2 0.4 -0.4
v 0.2 0.4 -0.5
v 0.2 0.4 -0.6
v 0.2 0.4 -0.7
v 0.3 0 -0.3
v 0.3 0 -0.4
v 0.3 0 -0.7
v 0.3 0 -0.8
v 0.3 0.2 -0.4
v 0.3 0.2 -0.7
v 0.3 0.3 -0.3
v 0.3 0.3 -0.8
v -0.5 0 -0.1
v -0.5 0.1 -0.1
v -0.4 0.1 -0.1
v -0.4 0.2 -0.1
v -0.1 0.1 -0.1
v -0.1 0.2 -0.1
v 0.1 0.1 -0.1
v 0.1 0.2 -0.1
v 0.2 0 -0.1
v 0.2 0.2 -0.1
v -0.5 0.1 -0.2
v -0.5 0.2 -0.2
v -0.4 0.1 -0.2
v -0.4 0.2 -0.2
v -0.3 0.2 -0.2
v -0.3 0.3 -0.2
v -0.1 0.2 -0.2
v 0.1 0.2 -0.2
v 0.2 0.2 -0.2
v 0.2 0.3 -0.2
v -0.4 0.2 -0.3
v -0.4 0.3 -0.3
v -0.3 0.2 -0.3
v -0.3 0.3 -0.3
v -0.3 0.4 -0.3
v 0.2 0 -0.3
v 0.2 0.3 -0.3
v 0.2 0.4 -0.3
v 0.3 0 -0.3
v 0.3 0.3 -0.3
v -0.6 0 -0.4
v -0.6 0.1 -0.4
v -0.5 0 -0.4
v -0.5 0.1 -0.4
v -0.6 0 -0.7
v -0.6 0.1 -0.7
v -0.5 0 -0.7
v -0.5 0.1 -0.7
v -0.3 0.3 -0.7
v -0.3 0.4 -0.7
v 0.1 0.3 -0.7
v 0.1 0.4 -0.7
v 0.2 0.3 -0.7
v 0.2 0.4 -0.7
v -0.5 0.1 -0.8
v -0.5 0.2 -0.8
v -0.4 0.1 -0.8
v -0.4 0.2 -0.8
v -0.4 0.3 -0.8
v -0.2 0.2 -0.8
v -5.96046e-008 0.2 -0.8
v 0.2 0 -0.8
v 0.2 0.2 -0.8
v 0.3 0 -0.8
v 0.3 0.3 -0.8
v -0.5 0 -0.9
v -0.5 0.1 -0.9
v -0.4 0.1 -0.9
v -0.4 0.2 -0.9
v -0.2 0.1 -0.9
v -0.2 0.2 -0.9
v -5.96046e-008 0.1 -0.9
v -5.96046e-008 0.2 -0.9
v 0.2 0 -0.9
v 0.2 0.2 -0.9
v -0.5 0 -0.1
v 0.2 0 -0.1
v 0.2 0 -0.3
v 0.3 0 -0.3
v -0.6 0 -0.4
v -0.5 0 -0.4
v 0.2 0 -0.4
v 0.3 0 -0.4
v -0.6 0 -0.7
v -0.5 0 -0.7
v 0.2 0 -0.7
v 0.3 0 -0.7
v 0.2 0 -0.8
v 0.3 0 -0.8
v -0.5 0 -0.9
v 0.2 0 -0.9
v -0.5 0.1 -0.1
v -0.4 0.1 -0.1
v -0.5 0.1 -0.2
v -0.4 0.1 -0.2
v -0.6 0.1 -0.4
v -0.5 0.1 -0.4
v -0.5 0.1 -0.5
v -0.6 0.1 -0.7
v -0.5 0.1 -0.7
v -0.5 0.1 -0.8
v -0.4 0.1 -0.8
v -0.5 0.1 -0.9
v -0.4 0.1 -0.9
v -0.4 0.2 -0.1
v -0.1 0.2 -0.1
v 0.1 0.2 -0.1
v 0.2 0.2 -0.1
v -0.5 0.2 -0.2
v -0.4 0.2 -0.2
v -0.3 0.2 -0.2
v -0.1 0.2 -0.2
v 0.1 0.2 -0.2
v 0.2 0.2 -0.2
v -0.4 0.2 -0.3
v -0.3 0.2 -0.3
v -0.5 0.2 -0.4
v -0.4 0.2 -0.4
v -0.5 0.2 -0.5
v -0.4 0.2 -0.5
v -0.4 0.2 -0.6
v -0.5 0.2 -0.8
v -0.4 0.2 -0.8
v -0.2 0.2 -0.8
v -5.96046e-008 0.2 -0.8
v 0.2 0.2 -0.8
v -0.4 0.2 -0.9
v -0.2 0.2 -0.9
v -5.96046e-008 0.2 -0.9
v 0.2 0.2 -0.9
v -0.3 0.3 -0.2
v 0.2 0.3 -0.2
v -0.4 0.3 -0.3
v -0.3 0.3 -0.3
v 0.2 0.3 -0.3
v 0.3 0.3 -0.3
v 0.2 0.3 -0.4
v 0.2 0.3 -0.5
v -0.4 0.3 -0.6
v -0.3 0.3 -0.6
v 0.2 0.3 -0.6
v -0.3 0.3 -0.7
v 0.1 0.3 -0.7
v 0.2 0.3 -0.7
v -0.4 0.3 -0.8
v 0.3 0.3 -0.8
v -0.3 0.4 -0.3
v 0.2 0.4 -0.3
v 0.1 0.4 -0.4
v 0.2 0.4 -0.4
v 0.1 0.4 -0.5
v 0.2 0.4 -0.5
v 0.1 0.4 -0.6
v 0.2 0.4 -0.6
v -0.3 0.4 -0.7
v 0.1 0.4 -0.7
v 0.2 0.4 -0.7

# faces
f 3/1/1 2/1/1 1/1/1
f 4/1/1 2/1/1 3/1/1
f 9/1/1 6/1/1 5/1/1
f 10/1/1 6/1/1 9/1/1
f 11/1/1 6/1/1 10/1/1
f 13/1/1 8/1/1 7/1/1
f 14/1/1 8/1/1 13/1/1
f 15/1/1 8/1/1 14/1/1
f 16/1/1 11/1/1 10/1/1
f 17/2/1 12/2/1 11/2/1
f 17/1/1 11/1/1 16/1/1
f 18/1/1 14/1/1 13/1/1
f 18/2/1 12/2/1 17/2/1
f 18/1/1 13/1/1 12/1/1
f 19/1/1 14/1/1 18/1/1
f 24/1/1 21/1/1 20/1/1
f 25/1/1 21/1/1 24/1/1
f 30/1/1 23/1/1 22/1/1
f 31/1/1 23/1/1 30/1/1
f 32/2/1 29/2/1 28/2/1
f 32/2/1 27/2/1 26/2/1
f 32/2/1 28/2/1 27/2/1
f 33/1/1 30/1/1 29/1/1
f 33/2/1 29/2/1 32/2/1
f 34/1/1 30/1/1 33/1/1
f 37/1/1 36/1/1 35/1/1
f 38/1/1 36/1/1 37/1/1
f 41/1/1 40/1/1 39/1/1
f 41/1/1 39/1/1 38/1/1
f 42/1/1 40/1/1 41/1/1
f 43/1/2 44/1/2 47/1/2
f 47/1/2 44/1/2 48/1/2
f 45/1/2 46/1/2 49/1/2
f 49/1/2 46/1/2 50/1/2
f 48/1/2 44/1/2 51/1/2
f 51/1/2 44/1/2 52/1/2
f 52/1/2 53/1/2 57/1/2
f 53/2/2 54/2/2 58/2/2
f 57/1/2 53/1/2 58/1/2
f 54/1/2 55/1/2 59/1/2
f 58/2/2 54/2/2 59/2/2
f 55/2/2 56/2/2 60/2/2
f 59/1/2 55/1/2 60/1/2
f 60/2/2 56/2/2 61/2/2
f 62/1/2 63/1/2 66/1/2
f 63/2/2 64/2/2 66/2/2
f 64/1/2 65/1/2 67/1/2
f 66/2/2 64/2/2 67/2/2
f 62/1/2 66/1/2 68/1/2
f 66/1/2 67/1/2 68/1/2
f 67/1/2 65/1/2 69/1/2
f 68/1/2 67/1/2 69/1/2
f 72/1/3 71/1/3 70/1/3
f 74/1/3 72/1/3 70/1/3
f 74/1/3 73/1/3 72/1/3
f 75/1/3 73/1/3 74/1/3
f 76/1/3 74/1/3 70/1/3
f 76/2/3 75/2/3 74/2/3
f 77/2/3 75/2/3 76/2/3
f 78/1/3 76/1/3 70/1/3
f 78/1/3 77/1/3 76/1/3
f 79/1/3 77/1/3 78/1/3
f 82/1/3 81/1/3 80/1/3
f 83/1/3 81/1/3 82/1/3
f 86/1/3 85/1/3 84/1/3
f 87/1/3 85/1/3 86/1/3
f 88/1/3 85/1/3 87/1/3
f 89/1/3 85/1/3 88/1/3
f 92/2/3 91/2/3 90/2/3
f 93/2/3 91/2/3 92/2/3
f 96/1/3 94/1/3 93/1/3
f 97/1/3 94/1/3 96/1/3
f 98/1/3 96/1/3 95/1/3
f 99/1/3 96/1/3 98/1/3
f 102/1/3 101/1/3 100/1/3
f 103/1/3 101/1/3 102/1/3
f 104/1/4 105/1/4 106/1/4
f 106/1/4 105/1/4 107/1/4
f 108/1/4 109/1/4 110/1/4
f 110/1/4 109/1/4 111/1/4
f 110/2/4 111/2/4 112/2/4
f 112/2/4 111/2/4 113/2/4
f 114/1/4 115/1/4 116/1/4
f 116/1/4 115/1/4 117/1/4
f 117/1/4 118/1/4 119/1/4
f 119/1/4 118/1/4 120/1/4
f 120/1/4 118/1/4 122/1/4
f 121/1/4 122/1/4 123/1/4
f 122/1/4 118/1/4 124/1/4
f 123/1/4 122/1/4 124/1/4
f 125/1/4 126/1/4 127/1/4
f 125/1/4 127/1/4 129/1/4
f 127/1/4 128/1/4 129/1/4
f 129/1/4 128/1/4 130/1/4
f 125/1/4 129/1/4 131/1/4
f 129/2/4 130/2/4 131/2/4
f 131/2/4 130/2/4 132/2/4
f 125/1/4 131/1/4 133/1/4
f 131/1/4 132/1/4 133/1/4
f 133/1/4 132/1/4 134/1/4
f 137/1/5 136/1/5 135/1/5
f 140/1/5 137/1/5 135/1/5
f 140/1/5 138/1/5 137/1/5
f 141/1/5 138/1/5 140/1/5
f 142/1/5 138/1/5 141/1/5
f 143/1/5 140/1/5 139/1/5
f 143/1/5 141/1/5 140/1/5
f 144/1/5 141/1/5 143/1/5
f 145/2/5 142/2/5 141/2/5
f 145/1/5 141/1/5 144/1/5
f 146/2/5 142/2/5 145/2/5
f 147/1/5 145/1/5 144/1/5
f 147/1/5 146/1/5 145/1/5
f 148/1/5 146/1/5 147/1/5
f 149/1/5 147/1/5 144/1/5
f 150/1/5 147/1/5 149/1/5
f 151/1/6 152/1/6 153/1/6
f 153/1/6 152/1/6 154/1/6
f 155/1/6 156/1/6 157/1/6
f 155/1/6 157/1/6 158/1/6
f 158/1/6 157/1/6 159/1/6
f 160/1/6 161/1/6 162/1/6
f 162/1/6 161/1/6 163/1/6
f 164/1/6 165/1/6 169/1/6
f 169/1/6 165/1/6 170/1/6
f 165/2/6 166/2/6 171/2/6
f 170/1/6 165/1/6 171/1/6
f 166/1/6 167/1/6 172/1/6
f 171/2/6 166/2/6 172/2/6
f 172/1/6 167/1/6 173/1/6
f 169/1/6 170/1/6 174/1/6
f 168/1/6 169/1/6 174/1/6
f 174/1/6 170/1/6 175/1/6
f 168/1/6 174/1/6 176/1/6
f 176/1/6 174/1/6 177/1/6
f 176/2/6 177/2/6 178/2/6
f 178/2/6 177/2/6 179/2/6
f 178/1/6 179/1/6 180/1/6
f 178/1/6 180/1/6 181/1/6
f 181/1/6 180/1/6 182/1/6
f 182/1/6 183/1/6 186/1/6
f 183/2/6 184/2/6 187/2/6
f 186/1/6 183/1/6 187/1/6
f 184/1/6 185/1/6 188/1/6
f 187/2/6 184/2/6 188/2/6
f 188/1/6 185/1/6 189/1/6
f 190/1/6 191/1/6 193/1/6
f 193/1/6 191/1/6 194/1/6
f 194/1/6 195/1/6 196/1/6
f 196/1/6 195/1/6 197/1/6
f 192/2/6 193/2/6 198/2/6
f 198/2/6 193/2/6 199/2/6
f 197/1/6 195/1/6 200/1/6
f 198/1/6 199/1/6 201/1/6
f 200/1/6 195/1/6 203/1/6
f 201/1/6 202/1/6 204/1/6
f 202/1/6 203/1/6 204/1/6
f 198/1/6 201/1/6 204/1/6
f 203/1/6 195/1/6 205/1/6
f 204/1/6 203/1/6 205/1/6
f 206/1/6 207/1/6 208/1/6
f 208/1/6 207/1/6 209/1/6
f 206/1/6 208/1/6 210/1/6
f 208/2/6 209/2/6 210/2/6
f 210/2/6 209/2/6 211/2/6
f 206/1/6 210/1/6 212/1/6
f 210/1/6 211/1/6 212/1/6
f 212/1/6 211/1/6 213/1/6
f 206/1/6 212/1/6 214/1/6
f 212/2/6 213/2/6 215/2/6
f 214/1/6 212/1/6 215/1/6
f 215/2/6 213/2/6 216/2/6
